
<svg xmlns="http://www.w3.org/2000/svg" viewBox="0 0 62.33 76.13" width="62.33000183105469" height="76.12999725341797"><defs><style>.cls-1{fill:#b60055;}</style></defs><title>Recurso 51</title><g id="Capa_2" data-name="Capa 2"><g id="Capa_3" data-name="Capa 3">
    
    
    
    <path class="cls-1 calamar-1 svg-elem-1" d="M35.85.06a1.23,1.23,0,0,1,.37,2.08c-.2.17-.19.28-.11.49Q38.55,9,41,15.43a1.12,1.12,0,0,0,.11.26A1.35,1.35,0,0,1,41,17.43c-.86,1.26-1.64,2.56-2.44,3.87a.88.88,0,0,1-1.53,0,.76.76,0,0,1,0-1c.75-1.23,1.49-2.41,2.26-3.61a1.15,1.15,0,0,0,.12-1.16c-.68-1.72-1.33-3.46-2-5.19-.18-.48-.48-.69-.86-.61a.78.78,0,0,0-.61.88V13.5a1.3,1.3,0,0,0,.26.82,3.14,3.14,0,0,1-1,4.62,3.06,3.06,0,0,1-4.42-2.45,3.16,3.16,0,0,1,.65-2.23,1,1,0,0,0,.21-.61v-3A.73.73,0,0,0,31,9.84a.72.72,0,0,0-.81.53c-.7,1.84-1.39,3.64-2.1,5.46a.87.87,0,0,0,.1.83q1.17,1.84,2.33,3.73a.87.87,0,1,1-1.47.94l-2.79-4.48a.58.58,0,0,1,0-.57C27.73,12.7,29,9.06,30.45,5.45Q31,4,31.56,2.58c0-.1.14-.2,0-.34A1.25,1.25,0,0,1,31.86,0h.35a1.14,1.14,0,0,1,.95,1.11,4.5,4.5,0,0,1,0,.46q0,6.23,0,12.46a1.29,1.29,0,0,1-.46,1.11,1.5,1.5,0,0,0,.43,2.39,1.43,1.43,0,0,0,1.66-.15,1.6,1.6,0,0,0,.44-1.75.93.93,0,0,0-.4-.56.67.67,0,0,1-.32-.66V1.26A1.08,1.08,0,0,1,35.4,0,1.73,1.73,0,0,1,35.85.06Z">
           
    <animateTransform class="cls-1"
                      
                        pointer-events="all"
                       attributeName="transform"
                      attributeType="XML"
                      type="rotate"
                      dur="10s" 
                      repeatDur="indefinite"
                      from="0 5 5"
                       to="5  0"
                       />
        
      </path>
    
    <path class="cls-1 calamar-2 svg-elem-2" d="M35.41.06l0-.06h.43a.29.29,0,0,0,0,.06Z">   
    <animateTransform class="efecff"
                      attributeName="transform"
                      attributeType="XML"
                      type="translate"
                      dur="10s" 
                      values="0,2;-3,0;0,2"
                      
                      repeatCount="indefinite"/>
   
    </path>
    
    
    
    <path class="cls-1 calamar-3 svg-elem-3" d="M50,63.23A1.84,1.84,0,0,1,50.51,66a8,8,0,0,1-1.17,1.18,3.89,3.89,0,0,1-5.21-.17,4.19,4.19,0,0,1-1.38-3.68,10.49,10.49,0,0,1,.49-2.57.34.34,0,0,0-.16-.46h0a22.32,22.32,0,0,1-6.85-7.7A1.42,1.42,0,0,1,36,51.7a1.23,1.23,0,0,1,2.32-.36,20.53,20.53,0,0,0,2.34,3.46,18.93,18.93,0,0,0,3.53,3.32c1.29-2.39,1.76-4.48-.29-6.93a8.93,8.93,0,0,0-2.44-2,1.23,1.23,0,0,1,.43-2.33,1,1,0,0,1,.61.11,9.43,9.43,0,0,1,5.1,6.28,7.11,7.11,0,0,1-.48,4.37c-.22.52-.43,1-.67,1.56-.09.18,0,.27.13.35a13.53,13.53,0,0,0,7.09,1.23A13.13,13.13,0,0,0,57.34,60a3.62,3.62,0,0,0,2.44-2.7,3.45,3.45,0,0,0-2.38-3.91,1.39,1.39,0,0,0-.53,0c-.51.06-.57.15-.51.61a1.68,1.68,0,1,1-3.34.39s0-.1,0-.15a2.42,2.42,0,0,1,.7-1.73A4.37,4.37,0,0,1,60.07,52a5.86,5.86,0,0,1,1.05,8.21q-.15.2-.32.38A7.38,7.38,0,0,1,57,62.64a17.19,17.19,0,0,1-6.65.52h-.32a1.73,1.73,0,0,1-.42,0l-.26,0a12,12,0,0,1-3.25-.92L45.82,62c-.15-.06-.26,0-.29.15a5.21,5.21,0,0,0-.18,2.17A1.65,1.65,0,0,0,47,65.56c.41,0,.54-.18.52-.61a1.74,1.74,0,0,1,.92-1.71,1.33,1.33,0,0,1,.85-.18c.1,0,.21,0,.32.06A.48.48,0,0,1,50,63.23Z">
    
       
    <animateTransform class="efecff"
                      attributeName="transform"
                      attributeType="XML"
                      type="translate"
                      dur="10s" 
                      values="0,2;-3,0;0,2"
                      
                      repeatCount="indefinite"/></path>
    
    
    <path class="cls-1 calamar-4 svg-elem-4" d="M12.26,63.16a21,21,0,0,1-2.79.13,14.84,14.84,0,0,1-6.16-1.36A5.7,5.7,0,0,1,0,56.45a5.84,5.84,0,0,1,4.5-5.52,4.45,4.45,0,0,1,4.6,2.27A1.78,1.78,0,0,1,8,55.8a1.67,1.67,0,0,1-2-2c.06-.26,0-.36-.24-.43a1.63,1.63,0,0,0-1.26.13,3.33,3.33,0,0,0-2,2.91,3.27,3.27,0,0,0,1.79,3.21,9,9,0,0,0,3,1,13.62,13.62,0,0,0,8.26-1c.45-.2.45-.2.27-.61a18,18,0,0,1-1-2.61,7,7,0,0,1,.45-4.74A10,10,0,0,1,19.74,47a1.24,1.24,0,1,1,1.17,2.18,8.76,8.76,0,0,0-2.74,2.37,4.92,4.92,0,0,0-.65,5.11l.61,1.45a13.93,13.93,0,0,0,1.77-1.43A20.79,20.79,0,0,0,24,51.39a1.23,1.23,0,1,1,2.17,1.15,22.76,22.76,0,0,1-3.45,4.83,19.87,19.87,0,0,1-3.47,3,.34.34,0,0,0-.17.46h0a9.61,9.61,0,0,1,.48,3.42A4,4,0,0,1,17,67.85a3.7,3.7,0,0,1-4.14-.76,8.64,8.64,0,0,1-1-1.05,1.84,1.84,0,0,1,.53-2.79.46.46,0,0,1,.35-.1c.1,0,.21,0,.32-.06a1.68,1.68,0,0,1,1.76,1.59v.16c0,.61.23.84.86.73a1.62,1.62,0,0,0,1.42-1.64,7.31,7.31,0,0,0-.25-1.72c-.06-.29-.26-.17-.42-.1a17.27,17.27,0,0,1-2.37.82,7.16,7.16,0,0,1-1.08.18l-.26,0A3.77,3.77,0,0,1,12.26,63.16Z">
    </path>
    
    
    
    <path class="cls-1 calamar-5 svg-elem-5" d="M50.11,47.83A16.35,16.35,0,0,1,44,46.44c-.21-.09-.42-.17-.61-.26a1.23,1.23,0,0,1,1-2.26,25.86,25.86,0,0,0,2.9,1,9,9,0,0,0,4.47.25A5.83,5.83,0,0,0,54,44.09a4.12,4.12,0,0,0,1.35-4.75,8.29,8.29,0,0,0-3.23-4.57,19.64,19.64,0,0,1-2.63-2,6,6,0,0,1-1.86-3.35,3.49,3.49,0,0,1,.51-2.62A6,6,0,0,1,53,24.09a3.25,3.25,0,0,1,2.71,1.23,5.59,5.59,0,0,1,1.3,2.8,1.73,1.73,0,0,1-1.31,2A1.68,1.68,0,0,1,54,27.57.37.37,0,0,0,54,27l0,0a1.15,1.15,0,0,0-1.22-.46,4.46,4.46,0,0,0-2.18,1.19,1.46,1.46,0,0,0-.39,1.59,4.52,4.52,0,0,0,1.7,2.21c.83.61,1.77,1.15,2.55,1.84a10.15,10.15,0,0,1,3.67,7.19,6.34,6.34,0,0,1-3.7,6.24A8.53,8.53,0,0,1,50.11,47.83Z">
    
    
    <animateTransform class="efecff"
                      attributeName="transform"
                      attributeType="XML"
                      type="translate"
                      dur="10s" 
                      values="0,2;-3,0;0,2"
                      
                      repeatCount="indefinite"/>
    </path>
    
    
    
    <path class="cls-1 calamar-6 svg-elem-6" d="M12.26,47.83a8.43,8.43,0,0,1-6-2.29,6.08,6.08,0,0,1-1.92-5.2,10.39,10.39,0,0,1,4.52-7.62A25.72,25.72,0,0,0,11,31.17,3.83,3.83,0,0,0,12.28,29,1.31,1.31,0,0,0,12,27.86a4.27,4.27,0,0,0-2.4-1.34,1.22,1.22,0,0,0-1.22.61c-.08.14,0,.21.05.31a1.69,1.69,0,0,1-1.13,2.69,1.64,1.64,0,0,1-1.89-1.77,4.79,4.79,0,0,1,2.37-3.94,3.5,3.5,0,0,1,2.65-.24A6.6,6.6,0,0,1,13.63,26a4.1,4.1,0,0,1,.54,5,7.84,7.84,0,0,1-2.44,2.69,20.78,20.78,0,0,0-2.5,1.84,8.11,8.11,0,0,0-2.47,4.83,3.89,3.89,0,0,0,1.81,3.89,6.62,6.62,0,0,0,4.82,1A17.49,17.49,0,0,0,17.73,44a2.57,2.57,0,0,1,.57-.19,1.23,1.23,0,0,1,.65,2.34,21.83,21.83,0,0,1-3.74,1.28A12.63,12.63,0,0,1,12.26,47.83Z">
    
    
     <animateTransform class="efecff"
                      attributeName="transform"
                      attributeType="XML"
                      type="translate"
                      dur="10s" 
                      values="0,2;-3,0;0,2"
                      
                      repeatCount="indefinite"/>
    
    
    </path>
    
    
    <path class="cls-1 calamar-7 svg-elem-7" d="M38.82,59.91A8.61,8.61,0,0,1,37.5,64.3c-.61,1.07-1.34,2.09-1.92,3.18a4.45,4.45,0,0,0,1.14,5.69c.18.16.31.23.56,0a1.43,1.43,0,0,1,2,.2,1.52,1.52,0,0,1-.06,2.07,2.27,2.27,0,0,1-2.44.49,5,5,0,0,1-2.55-1.88,7,7,0,0,1-1.64-4.58,7.46,7.46,0,0,1,1.18-3.74c.61-1,1.19-1.93,1.77-2.91a5,5,0,0,0,.5-4.68,9.88,9.88,0,0,0-1.07-1.95c-.49-.71-1.06-1.36-1.61-2a1.23,1.23,0,0,1,0-1.73l.12-.11a1.22,1.22,0,0,1,1.72.11l.11.14a19.69,19.69,0,0,1,2.63,3.68A8.31,8.31,0,0,1,38.82,59.91Z">
    
</path>
    
    
    
    <path class="cls-1 calamar-8 svg-elem-8" d="M27.35,69.63a4.79,4.79,0,0,0-.79-2.51C26,66.06,25.28,65,24.66,64a7.66,7.66,0,0,1,.21-8.33,22.78,22.78,0,0,1,2.37-3.13,1.23,1.23,0,1,1,1.86,1.6A22.76,22.76,0,0,0,26.95,57,5.87,5.87,0,0,0,26,60.39a5.34,5.34,0,0,0,.61,2c.61,1.19,1.37,2.26,2,3.4a7.33,7.33,0,0,1,1.16,4,7.09,7.09,0,0,1-3.09,5.7,3.14,3.14,0,0,1-2.65.57,1.72,1.72,0,0,1-1.33-1.59,1.4,1.4,0,0,1,.8-1.36,1.35,1.35,0,0,1,1.56.15.32.32,0,0,0,.45.06l.06-.06A4.75,4.75,0,0,0,27.35,69.63Z">
    
       
</path>
    
    
    <path class="cls-1 calamar-9 svg-elem-9" d="M32.62,34.72a1.4,1.4,0,1,1-1.41,1.4v0a1.36,1.36,0,0,1,1.36-1.37Z">
    
  </path>
    
    
    
    
    <path class="cls-1 calamar-10 svg-elem-10" d="M43.92,37.29,41.64,25a.81.81,0,0,0-.89-.73h0a.8.8,0,0,0-.65,1l.43,2.41a3.93,3.93,0,1,0,.92,5,2.46,2.46,0,0,1,.07.24c.34,1.84.67,3.68,1,5.52a2,2,0,0,1-.78,2.07,16.36,16.36,0,0,1-2.07,1.23,2.89,2.89,0,0,0-.93.75.8.8,0,0,0,.48,1.28,1.28,1.28,0,0,0,.92-.17c.81-.42,1.64-.83,2.44-1.32a3.45,3.45,0,0,0,1.66-3.07A9.88,9.88,0,0,0,43.92,37.29ZM38.1,33a2.24,2.24,0,1,1,2.27-2.23A2.25,2.25,0,0,1,38.1,33Z">
    
       
   </path>
    
    
    
    <path class="cls-1 calamar-11 svg-elem-11" d="M31.78,29.92a3.76,3.76,0,0,0-1.61-2.21,4,4,0,0,0-4.33,0l.27-1c.13-.5.29-1,.4-1.5a.77.77,0,0,0-.37-.88.83.83,0,0,0-.93.09,1.23,1.23,0,0,0-.32.66q-2.06,7.3-4.11,14.61a2.37,2.37,0,0,0-.17.9.71.71,0,0,0,1.05.61,1,1,0,0,0,.57-.72l1.6-5.62c.21-.75.42-1.49.64-2.27a3.9,3.9,0,0,0,7.3-2.69Zm-3.87,3.27A2.24,2.24,0,1,1,30.19,31,2.21,2.21,0,0,1,28,33.19h-.07Z"> 
    
       
    </path></g></g></svg>