<svg xmlns="http://www.w3.org/2000/svg" viewBox="0 0 67.34 67.34"><defs><style>.cls-1{fill:#b60055;}</style></defs><title>Recurso 6</title><g id="Capa_2" data-name="Capa 2"><g id="Capa_3" data-name="Capa 3"><path class="cls-1" d="M41.31,55.12s.38-6.76-7.64-4.52a10.79,10.79,0,0,0-6.06,3.64,14.33,14.33,0,0,0,6.85,2.24A20.92,20.92,0,0,0,41.31,55.12Z"/>
    
    <circle class="cls-1" cx="20.33" cy="28.01" r="3.42">
    
    <animateTransform class="efecff"
                      attributeName="transform"
                      attributeType="XML"
                      type="translate"
                      dur="10s" 
                      
                      values="0,0;0,5;-5,0"
                      repeatCount="indefinite"/>
     
    
    </circle>
    
    <circle class="cls-1" cx="47.18" cy="28.01" r="3.42">
    
     <animateTransform class="efecff"
                      attributeName="transform"
                      attributeType="XML"
                      type="translate"
                      dur="10s"  
                      values="0,0;0,5;-5,0"
                      repeatCount="indefinite"/>
    
    
    </circle>
   
    
    <circle class="cls-1" cx="51.93" cy="23.74" r="1.92">
         <animateTransform class="efecff"
                      attributeName="transform"
                      attributeType="XML"
                      type="translate"
                      dur="10s" 
                      values="0,0;-0,5;0,0"
                      repeatCount="indefinite"/>
    </circle>
    
    
    <circle class="cls-1" cx="25" cy="23.74" r="1.92">
    
     <animateTransform class="efecff"
                      attributeName="transform"
                      attributeType="XML"
                      type="translate"
                      dur="10s" 
                      values="0,0;-0,5;0,0"
                      repeatCount="indefinite"/>
    </circle>
    
    <path class="cls-1" d="M33.67,0A33.67,33.67,0,1,0,67.34,33.67,33.67,33.67,0,0,0,33.67,0ZM24.36,4.48A1.33,1.33,0,0,1,26,6.58c-1.67,1.29-2.91,2.91-2.82,3.4a1.94,1.94,0,0,0,.89.35c3.54.79,8-2.91,9.46-4.4a1.33,1.33,0,0,1,2.12,1.56c-1,1.9-1.68,4.25-1.28,4.74.08.1.67.29,2.22-.19A16.84,16.84,0,0,0,46,4.91a1.33,1.33,0,0,1,2.34,1.25,19.2,19.2,0,0,1-11,8.42A8.46,8.46,0,0,1,34.9,15a3.18,3.18,0,0,1-2.61-1.09,4,4,0,0,1-.64-3.08c-2.26,1.45-5.26,2.75-8.17,2.1-2.07-.46-2.72-1.54-2.9-2.36C20,8.05,23.33,5.27,24.36,4.48ZM9.72,27.74a9.87,9.87,0,1,1,9.87,9.87A9.87,9.87,0,0,1,9.72,27.74ZM46.52,56.4c-9,4.74-19.58,2-27.55-3.63-3-2.16-8.52-8-3.38-11.26,4.35-2.79,8.17,1.14,11.58,3.52,4,2.82,7.9,2.39,12.2.19a32.2,32.2,0,0,1,4.25-1.79c5-1.68,11.21-2.27,11.17,4.44C54.76,52,49.73,54.71,46.52,56.4Zm1.11-18.79a9.87,9.87,0,1,1,9.87-9.87A9.87,9.87,0,0,1,47.63,37.61Z"/></g></g></svg>