<svg xmlns="http://www.w3.org/2000/svg" viewBox="0 0 63.71 60.17"><defs><style>.cls-1{fill:#b60055;}</style></defs><title>Recurso 7</title><g id="Capa_2" data-name="Capa 2"><g id="Capa_3" data-name="Capa 3"><rect class="cls-1" y="13.77" width="46.4" height="46.4" rx="3.34" ry="3.34">
    <animateTransform class="efecff"
                      attributeName="transform"
                      attributeType="XML"
                      type="translate"
                      dur="20s" 
                      
                      values="0,2;3,0;0,2"
                      repeatCount="indefinite"/></rect>
    
    <path class="cls-1" d="M5.65,9H47.56a1.46,1.46,0,0,0,.93-.33l7.31-6A1.46,1.46,0,0,0,54.87,0H12.74a1.46,1.46,0,0,0-.94.35l-7.1,6A1.46,1.46,0,0,0,5.65,9Z">
    <animateTransform class="efecff"
                      attributeName="transform"
                      attributeType="XML"
                      type="translate"
                      dur="20s" 
                      
                      values="0,0;0,5;-5,0"
                      repeatCount="indefinite"/></path>
    
    <path class="cls-1" d="M52.73,13.12,60,6.24a2.2,2.2,0,0,1,3.71,1.6V47.75a2.2,2.2,0,0,1-.64,1.56l-7.2,7.2A2.2,2.2,0,0,1,52.11,55L52,14.72A2.2,2.2,0,0,1,52.73,13.12Z"> <animateTransform class="efecff"
                      attributeName="transform"
                      attributeType="XML"
                      type="translate"
                      dur="20s" 
                      values="0,2;-3,0;0,2"
                      
                      repeatCount="indefinite"/></path></g></g></svg>