<svg xmlns="http://www.w3.org/2000/svg" viewBox="0 0 69.69 69.69"><defs><style>.cls-1{fill:#b60055;}.cls-2{fill:none;stroke:#b60055;stroke-miterlimit:10;stroke-width:5px;}</style></defs><title>Recurso 9</title><g id="Capa_2" data-name="Capa 2"><g id="Capa_3" data-name="Capa 3"><path class="cls-1" d="M49.16,26.32s1.18-3.24,0-5.53-6.58-4.72-10.63-3.91a83.85,83.85,0,0,0-8,2.41c-2.16.66-5.92,2-8.13,1-.79-.37-3.54-3.3-3.08-.78.33,1.82,2.94,4,4.58,4.56a13.12,13.12,0,0,0,3.41.46c6,.41,11.52,3.17,17.07,5.21.32.12.64,4.32.71,4.73C45.71,38,46.26,44,49.93,45.89c1.33.69,4.95,1.17,6-.37,1.38-2.06-3.14-1.63-3.74-1.54-3.89.61.4-9.14.4-9.14S56.28,25.91,49.16,26.32Z">
    
  
     <animateTransform class="cls-1"
                      
                        pointer-events="all"
                       attributeName="transform"
                      attributeType="XML"
                      type="rotate"
                      dur="10s" 
                      repeatDur="indefinite"
                      from="-20 0 0"
                       to="0 0 20"
                       />
   
    </path><rect class="cls-2" x="2.5" y="2.5" width="64.69" height="64.69" rx="8.68" ry="8.68"/><path class="cls-1" d="M39.24,47.68s1.17,7.75,6.34,9.63S54.74,62,55,64.59a12.31,12.31,0,0,1,0,3.52l-19-.92V47.68Z"/><path class="cls-1" d="M33.66,47.68s-1.17,7.75-6.34,9.63S18.16,62,17.93,64.59a12.31,12.31,0,0,0,0,3.52l19-.92V47.68Z"/><path class="cls-1" d="M37,21.39c-6.75,0-12.21,7-12.21,15.61S30.2,52.62,37,52.62s12.21-7,12.21-15.61S43.7,21.39,37,21.39ZM29.58,34.84a1,1,0,1,1-1.38-1.45,4.82,4.82,0,0,1,6.39-.06,1,1,0,1,1-1.23,1.57A2.82,2.82,0,0,0,29.58,34.84Zm11.08,8.61a24.22,24.22,0,0,1-3.41.27,8.7,8.7,0,0,1-2.73-.32,1,1,0,0,1,.66-1.89c.06,0,1.58.47,5.2,0a1,1,0,0,1,.28,2Zm3.5-7.85a1,1,0,0,1-.62-.21,2.82,2.82,0,0,0-3.78-.06,1,1,0,1,1-1.38-1.45,4.82,4.82,0,0,1,6.39-.06,1,1,0,0,1-.62,1.79Z">
    
     <animateTransform class="efecff"
                      attributeName="transform"
                      attributeType="XML"
                      type="translate"
                      dur="10s" 
                      begin="mouseover+1s"
                      values="0,0;-2,0;0,0"
                      />
    
    </path></g></g></svg>