<svg xmlns="http://www.w3.org/2000/svg" viewBox="0 0 108.39 108.35"><defs><style>.cls-1{fill:#fff;}</style></defs><title>Recurso 21</title><g id="Capa_2" data-name="Capa 2"><g id="Capa_7" data-name="Capa 7"><path class="cls-1" d="M52.65,108.26c-6.51-.33-14.73.65-22.88-.46-15.55-2.12-28-14.89-29-30.6A348.74,348.74,0,0,1,.82,30.14C1.86,15.5,14.63,2.65,29.54.61,38.2-.58,46.94.56,55.62,0c13.72-.82,26.33,10.36,30.21,21,1.47,4,2,8.29,2.67,12.49,1,6.12,2.31,7.27,8.53,7.53,2.21.09,4.42.32,6.63.48A4.41,4.41,0,0,1,108,45.28a19.11,19.11,0,0,1,.36,6.11C107.74,59,108,66.57,108,74.17A34.45,34.45,0,0,1,74,108.25C67.47,108.32,60.89,108.26,52.65,108.26Zm1.68-41c-6.13,0-12.27,0-18.4,0-4.43,0-6.92,2.21-7,6s2.55,6.53,6.88,6.56q18.53.11,37.06,0c4.17,0,6.81-2.68,6.76-6.41S77,67.33,72.74,67.31C66.6,67.28,60.47,67.3,54.33,67.3ZM44.55,28.38c-3.15,0-6.31-.07-9.46,0-3.7.1-6,2.37-6.14,5.82C28.82,38,31,40.83,34.78,40.93c6.47.17,13,.18,19.43,0a6.06,6.06,0,0,0,6-6.62c-.14-3.42-2.71-5.83-6.42-5.9C50.69,28.33,47.62,28.37,44.55,28.38Z"/></g></g></svg>