<svg xmlns="http://www.w3.org/2000/svg" viewBox="0 0 275.64 228.62"><defs><style>.cls-1{fill:#fff;}</style></defs><title>Recurso 21</title><g id="Capa_2" data-name="Capa 2"><g id="Capa_7" data-name="Capa 7"><path class="cls-1" d="M44.91,0c7.3.69,12.48,4.26,17.42,8.44,11.12,9.42,22.5,18.62,33.67,28,3.17,2.66,6.69,5.1,8.72,8.61a15.72,15.72,0,0,1,.4,15.86,24.68,24.68,0,0,1-6.85,7.72c-6,4.89-12,9.86-18,14.77a1.58,1.58,0,0,0-.38,2.43c6.91,10.18,13.91,20.3,22.59,29.56a184.49,184.49,0,0,0,30.59,26.07,185,185,0,0,0,22.53,13c5.23,2.58,10.55,5,15.74,7.66,2,1,3.25.86,4.89-.54q9.51-8.1,19.3-16c6.72-5.37,14.75-6.78,23.6-4.55,4.09,1,7.19,3.43,10.16,5.9q18.47,15.35,37,30.66c4.16,3.43,7.88,7,9.31,11.91v7.67c-1.29,2.57-2.21,5.29-4.47,7.47a90.38,90.38,0,0,1-16.83,13.24A77.18,77.18,0,0,1,230.49,227c-3.13.64-6.3,1.08-9.45,1.62h-8.37a7.23,7.23,0,0,0-1.27-.24c-8-.11-15.86-1.46-23.64-3a196.53,196.53,0,0,1-33.34-9.76,261.22,261.22,0,0,1-39.51-19.36,306.81,306.81,0,0,1-33.64-23.17c-8.22-6.52-16.12-13.29-23.82-20.23-7.3-6.58-14.39-13.31-20.95-20.4a195.47,195.47,0,0,1-20.31-25.56A106.32,106.32,0,0,1,3,79.18,126.32,126.32,0,0,1,0,65.37V48.94c.61-1.16.26-2.4.47-3.6A55.46,55.46,0,0,1,19.91,11.29C25.9,6.22,31.62.79,40.95,0Z"/></g></g></svg>