<svg xmlns="http://www.w3.org/2000/svg" viewBox="0 0 31.33 31.33"><defs><style>.cls-1{fill:#b60055;}</style></defs><title>Recurso 14</title><g id="Capa_2" data-name="Capa 2"><g id="Capa_3" data-name="Capa 3"><path class="cls-1" d="M23.63,0H7.7A7.7,7.7,0,0,0,0,7.7V23.63a7.7,7.7,0,0,0,7.7,7.7H23.63a7.7,7.7,0,0,0,7.7-7.7V7.7A7.7,7.7,0,0,0,23.63,0ZM22,15.66a.56.56,0,0,1-.56.56H18.62a.56.56,0,0,0-.56.56V29.07a.56.56,0,0,1-.56.56h-5a.56.56,0,0,1-.56-.56V16.78a.56.56,0,0,0-.56-.56H9.86a.56.56,0,0,1-.56-.56V11.12a.56.56,0,0,1,.56-.56H11.4A.56.56,0,0,0,12,10V6.37h0a4.68,4.68,0,0,1,4.68-4.68h4.47a.56.56,0,0,1,.56.56V6.84a.56.56,0,0,1-.56.56h-2.5a.56.56,0,0,0-.56.56v2a.56.56,0,0,0,.56.56h2.85a.56.56,0,0,1,.56.56Z"/></g></g></svg>