<svg xmlns="http://www.w3.org/2000/svg" viewBox="0 0 95.89 111.1"><defs><style>.cls-1{fill:#3a0026;}.cls-2{fill:#fe4776;}.cls-3{fill:#fe8fab;}.cls-4{isolation:isolate;}.cls-5{fill:#fff;}.cls-6{fill:#b60055;}</style></defs><title>Recurso 3</title><g id="Capa_2" data-name="Capa 2"><g id="Capa_1-2" data-name="Capa 1"><polygon class="cls-1" points="93.23 81.53 93.23 29.35 48.2 3.26 3.17 29.35 3.17 81.53 48.2 107.62 93.23 81.53"/><g id="Capa_2-2" data-name="Capa 2"><g id="Capa_1-2-2" data-name="Capa 1-2"><path class="cls-2" d="M50.6,12.29a.79.79,0,0,1,.24,1.34c-.13.11-.12.18-.07.32q1.58,4.13,3.18,8.27a.73.73,0,0,0,.07.17.87.87,0,0,1-.08,1.13c-.55.81-1.06,1.66-1.58,2.5a.57.57,0,0,1-1,0,.49.49,0,0,1,0-.62c.49-.79,1-1.56,1.46-2.33a.74.74,0,0,0,.08-.75c-.44-1.11-.86-2.23-1.29-3.35-.12-.31-.31-.44-.56-.4a.51.51,0,0,0-.39.57V21a.84.84,0,0,0,.17.53,2,2,0,0,1-.43,2.84l-.23.15a2,2,0,0,1-2.86-1.58,2,2,0,0,1,.42-1.44.62.62,0,0,0,.13-.4V19.12a.47.47,0,0,0-.39-.51A.47.47,0,0,0,47,19c-.45,1.19-.9,2.35-1.36,3.53a.56.56,0,0,0,.07.54q.76,1.19,1.5,2.41a.57.57,0,1,1-1,.61l-1.8-2.9a.37.37,0,0,1,0-.37c1-2.31,1.81-4.67,2.72-7q.36-.93.71-1.86c0-.07.09-.13,0-.22a.81.81,0,0,1,.2-1.44h.23a.74.74,0,0,1,.61.72,2.91,2.91,0,0,1,0,.3q0,4,0,8.05a.83.83,0,0,1-.3.72,1,1,0,0,0,.28,1.54.92.92,0,0,0,1.07-.1,1,1,0,0,0,.28-1.13.6.6,0,0,0-.26-.36.43.43,0,0,1-.21-.42V13.07a.7.7,0,0,1,.58-.79A1.12,1.12,0,0,1,50.6,12.29Z"/><path class="cls-3" d="M50.31,12.29l0,0h.28a.19.19,0,0,0,0,0Z"/><path class="cls-2" d="M59.75,53.11a1.19,1.19,0,0,1,.33,1.82,5.18,5.18,0,0,1-.75.76A2.52,2.52,0,0,1,56,55.58a2.71,2.71,0,0,1-.89-2.38,6.78,6.78,0,0,1,.32-1.66.22.22,0,0,0-.1-.3h0a14.43,14.43,0,0,1-4.43-5,.92.92,0,0,1-.15-.61.79.79,0,0,1,1.5-.23,13.26,13.26,0,0,0,1.51,2.23A12.23,12.23,0,0,0,56,49.81c.83-1.54,1.14-2.9-.19-4.48A5.77,5.77,0,0,0,54.22,44a.79.79,0,0,1,.28-1.51.63.63,0,0,1,.39.07,6.09,6.09,0,0,1,3.3,4.06,4.6,4.6,0,0,1-.31,2.83c-.14.34-.28.68-.43,1-.06.12,0,.17.08.23a8.74,8.74,0,0,0,4.58.79A8.48,8.48,0,0,0,64.48,51a2.34,2.34,0,0,0,1.58-1.75,2.23,2.23,0,0,0-1.54-2.53.9.9,0,0,0-.34,0c-.33,0-.37.1-.33.4a1.09,1.09,0,1,1-2.16.26s0-.06,0-.1a1.56,1.56,0,0,1,.45-1.12,2.83,2.83,0,0,1,4.11-.3,3.79,3.79,0,0,1,.68,5.3l-.21.25a4.77,4.77,0,0,1-2.42,1.35,11.11,11.11,0,0,1-4.3.33h-.21a1.12,1.12,0,0,1-.27,0l-.17,0a7.76,7.76,0,0,1-2.1-.59L57,52.33c-.1,0-.17,0-.19.1a3.36,3.36,0,0,0-.12,1.4,1.07,1.07,0,0,0,1.09.79c.26,0,.35-.11.34-.4a1.13,1.13,0,0,1,.59-1.11.86.86,0,0,1,.55-.11c.07,0,.14,0,.21,0A.31.31,0,0,1,59.75,53.11Z"/><path class="cls-2" d="M35.36,53.06a13.57,13.57,0,0,1-1.8.09,9.59,9.59,0,0,1-4-.88,3.68,3.68,0,0,1-2.14-3.54,3.77,3.77,0,0,1,2.91-3.57,2.88,2.88,0,0,1,3,1.47,1.15,1.15,0,0,1-.73,1.67A1.08,1.08,0,0,1,31.32,47c0-.17,0-.23-.15-.28a1.05,1.05,0,0,0-.82.08A2.15,2.15,0,0,0,29,48.7a2.11,2.11,0,0,0,1.16,2.07,5.83,5.83,0,0,0,1.92.62,8.8,8.8,0,0,0,5.34-.62c.29-.13.29-.13.17-.4A11.66,11.66,0,0,1,37,48.7a4.54,4.54,0,0,1,.29-3.06,6.48,6.48,0,0,1,2.9-3,.8.8,0,1,1,.76,1.41,5.66,5.66,0,0,0-1.77,1.53,3.18,3.18,0,0,0-.42,3.3l.39.94a9,9,0,0,0,1.14-.93A13.43,13.43,0,0,0,43,45.46a.79.79,0,1,1,1.4.74,14.71,14.71,0,0,1-2.23,3.12,12.84,12.84,0,0,1-2.24,1.95.22.22,0,0,0-.11.29h0a6.21,6.21,0,0,1,.31,2.21,2.57,2.57,0,0,1-1.7,2.32,2.39,2.39,0,0,1-2.67-.49,5.59,5.59,0,0,1-.64-.68,1.19,1.19,0,0,1,.15-1.67l.19-.13a.3.3,0,0,1,.23-.07c.07,0,.14,0,.21,0A1.08,1.08,0,0,1,37,54v.1c0,.4.15.54.56.47a1,1,0,0,0,.92-1.06,4.72,4.72,0,0,0-.16-1.11c0-.19-.17-.11-.27-.07a11.16,11.16,0,0,1-1.53.53,4.62,4.62,0,0,1-.69.12l-.17,0Z"/><path class="cls-2" d="M59.81,43.16a10.57,10.57,0,0,1-3.95-.9l-.39-.17a.79.79,0,0,1,.62-1.46,16.71,16.71,0,0,0,1.87.67,5.8,5.8,0,0,0,2.89.16,3.77,3.77,0,0,0,1.5-.71,2.66,2.66,0,0,0,.87-3.07,5.36,5.36,0,0,0-2.08-3,12.69,12.69,0,0,1-1.7-1.28,3.88,3.88,0,0,1-1.2-2.17,2.26,2.26,0,0,1,.33-1.69,3.89,3.89,0,0,1,3.13-1.76,2.1,2.1,0,0,1,1.75.79,3.61,3.61,0,0,1,.84,1.81,1.12,1.12,0,0,1-.85,1.32,1.09,1.09,0,0,1-1.12-1.68.24.24,0,0,0,0-.34l0,0a.74.74,0,0,0-.79-.3,2.88,2.88,0,0,0-1.41.77.94.94,0,0,0-.25,1A2.92,2.92,0,0,0,61,32.64c.54.4,1.14.74,1.65,1.19A6.56,6.56,0,0,1,65,38.48a4.1,4.1,0,0,1-2.39,4A5.51,5.51,0,0,1,59.81,43.16Z"/><path class="cls-2" d="M35.36,43.16a5.45,5.45,0,0,1-3.89-1.48,3.93,3.93,0,0,1-1.24-3.36,6.71,6.71,0,0,1,2.92-4.93,16.62,16.62,0,0,0,1.37-1A2.47,2.47,0,0,0,35.37,31a.85.85,0,0,0-.21-.76,2.76,2.76,0,0,0-1.55-.87.79.79,0,0,0-.79.4c-.05.09,0,.13,0,.2a1.09,1.09,0,0,1-.73,1.74,1.06,1.06,0,0,1-1.22-1.15A3.09,3.09,0,0,1,32.44,28a2.26,2.26,0,0,1,1.71-.15,4.26,4.26,0,0,1,2.09,1.21,2.65,2.65,0,0,1,.35,3.21A5.07,5.07,0,0,1,35,34a13.43,13.43,0,0,0-1.61,1.19,5.24,5.24,0,0,0-1.6,3.12A2.51,2.51,0,0,0,33,40.85a4.28,4.28,0,0,0,3.12.67,11.3,11.3,0,0,0,2.81-.82,1.66,1.66,0,0,1,.37-.12.79.79,0,0,1,.42,1.51,14.1,14.1,0,0,1-2.42.83A8.16,8.16,0,0,1,35.36,43.16Z"/><path class="cls-2" d="M52.52,51a5.56,5.56,0,0,1-.85,2.84c-.39.69-.86,1.35-1.24,2.06a2.88,2.88,0,0,0,.73,3.68c.12.1.2.15.36,0a.93.93,0,0,1,1.28.13,1,1,0,0,1,0,1.34,1.46,1.46,0,0,1-1.58.32,3.26,3.26,0,0,1-1.65-1.21,4.52,4.52,0,0,1-1.06-3,4.82,4.82,0,0,1,.76-2.42c.39-.63.77-1.25,1.14-1.88a3.25,3.25,0,0,0,.32-3A6.39,6.39,0,0,0,50,48.59c-.32-.46-.68-.88-1-1.31a.79.79,0,0,1,0-1.12l.07-.07a.79.79,0,0,1,1.11.07l.07.09a12.73,12.73,0,0,1,1.7,2.38A5.37,5.37,0,0,1,52.52,51Z"/><path class="cls-2" d="M45.11,57.25a3.1,3.1,0,0,0-.51-1.62c-.39-.69-.83-1.35-1.23-2a5,5,0,0,1,.14-5.38,14.72,14.72,0,0,1,1.53-2,.79.79,0,1,1,1.2,1,14.7,14.7,0,0,0-1.4,1.89,3.79,3.79,0,0,0-.61,2.17,3.45,3.45,0,0,0,.39,1.31c.39.77.89,1.46,1.31,2.2a4.74,4.74,0,0,1,.75,2.56,4.58,4.58,0,0,1-2,3.68,2,2,0,0,1-1.71.37,1.11,1.11,0,0,1-.86-1,.91.91,0,0,1,.52-.88.87.87,0,0,1,1,.1.2.2,0,0,0,.29,0l0,0A3.07,3.07,0,0,0,45.11,57.25Z"/><path class="cls-2" d="M48.51,34.69a.91.91,0,1,1-.91.9v0a.88.88,0,0,1,.88-.89Z"/><path class="cls-2" d="M55.81,36.35l-1.47-8a.53.53,0,0,0-.57-.47h0a.52.52,0,0,0-.44.59l0,.08.28,1.56a2.54,2.54,0,1,0,.59,3.25l0,.15c.22,1.19.43,2.38.66,3.57a1.29,1.29,0,0,1-.5,1.34,10.57,10.57,0,0,1-1.34.79,1.86,1.86,0,0,0-.6.49.52.52,0,0,0,.31.82.83.83,0,0,0,.6-.11c.53-.27,1.06-.53,1.58-.85a2.23,2.23,0,0,0,1.07-2A6.38,6.38,0,0,0,55.81,36.35Zm-3.76-2.77a1.45,1.45,0,1,1,1.46-1.44,1.46,1.46,0,0,1-1.46,1.44Z"/><path class="cls-2" d="M48,31.58a2.43,2.43,0,0,0-1-1.43,2.57,2.57,0,0,0-2.8,0l.17-.63c.09-.32.19-.65.26-1a.5.5,0,0,0-.24-.57.54.54,0,0,0-.6.06.79.79,0,0,0-.21.42l-2.66,9.44a1.53,1.53,0,0,0-.11.58.46.46,0,0,0,.68.4.66.66,0,0,0,.37-.47l1-3.63.41-1.47A2.52,2.52,0,0,0,48,31.58Zm-2.5,2.12a1.45,1.45,0,1,1,1.47-1.43,1.43,1.43,0,0,1-1.43,1.43h0Z"/><g class="cls-4"><g class="cls-4"><path class="cls-5" d="M33.47,82.89c.89-1,1-1.68.89-2s-.55-.35-.78-.35c-1.21,0-3,1.82-4,4A6.91,6.91,0,0,0,29.05,87a3.94,3.94,0,0,0,.47,2.18,1.32,1.32,0,0,0,1.19.66c1,0,1.83-1,2.31-1.9a8.3,8.3,0,0,0,.6-1.29c0-.11.07-.22.11-.32a2.84,2.84,0,0,0-2-.09.48.48,0,0,1-.64-.19.47.47,0,0,1,.17-.65,2.9,2.9,0,0,1,2.11-.15,7.3,7.3,0,0,1,1.11.35.46.46,0,0,1,.27.57v0s0,.07,0,.09a0,0,0,0,0,0,0c0,.15-.12.36-.23.65a8,8,0,0,0-.36,2.13,4.38,4.38,0,0,0,.13,1.33.48.48,0,0,1-.24.63.53.53,0,0,1-.2,0,.48.48,0,0,1-.43-.28,4.43,4.43,0,0,1-.21-1.44,5.29,5.29,0,0,1-.59.62,2.85,2.85,0,0,1-1.91.79,2.26,2.26,0,0,1-2-1.09c-.93-1.43-.74-4,0-5.58A10.51,10.51,0,0,1,30.81,81a4.32,4.32,0,0,1,2.77-1.47,1.67,1.67,0,0,1,1.65.93,2,2,0,0,1,0,1.46,5,5,0,0,1-1,1.6.48.48,0,0,1-.67,0A.5.5,0,0,1,33.47,82.89Z"/><path class="cls-5" d="M38.49,89.95a1,1,0,0,1-.91-.43,1.19,1.19,0,0,1-.16-.89,3.88,3.88,0,0,1,.42-1.23,2.17,2.17,0,0,0,.34-1.09c0-.13-.11-.34-.58-.65-.36.81-1,2.12-1,2.18a.48.48,0,0,1-.87-.4s.77-1.64,1.1-2.4a1.64,1.64,0,0,1-.11-.22.92.92,0,0,1,.05-.75.67.67,0,0,1,.87-.35.66.66,0,0,1,.36.7,1.59,1.59,0,0,1-.05.34,2.11,2.11,0,0,1,1.15,1.37,2.94,2.94,0,0,1-.42,1.68c-.42.85-.34,1.12-.32,1.16s.05,0,.17,0h0a3.64,3.64,0,0,0,2.28-1.83.48.48,0,0,1,.66-.16.47.47,0,0,1,.16.65,5.72,5.72,0,0,1-1.34,1.54,3.15,3.15,0,0,1-1.71.77h-.13Z"/><path class="cls-5" d="M42.33,90.18a1.35,1.35,0,0,1-1-.44A1.39,1.39,0,0,1,41,88.6a4.3,4.3,0,0,1,.89-1.94,7.52,7.52,0,0,1,1.45-1.47,2.31,2.31,0,0,1,2.44-.35,1.11,1.11,0,0,1,.47,1.23.47.47,0,0,1-.48.38.66.66,0,0,1,.27.24c.13.3,0,.65-.42,1.2a3.41,3.41,0,0,1-.28.34c-.05.15-.12.3-.16.43a1,1,0,0,0-.05.42s.07,0,.15,0c.67,0,1.33-.63,2-1.94a.48.48,0,1,1,.85.44,6.28,6.28,0,0,1-1.33,1.82,2.23,2.23,0,0,1-1.53.63,1.05,1.05,0,0,1-1-.43,1.6,1.6,0,0,1-.11-.27,3.26,3.26,0,0,1-1.77.84Zm2.59-4.59a1.88,1.88,0,0,0-1.06.39,5.24,5.24,0,0,0-2,2.71.51.51,0,0,0,.11.4.38.38,0,0,0,.35.13,4.21,4.21,0,0,0,2.12-1.51l.11-.23.08-.18a2.62,2.62,0,0,1,.31-.55.69.69,0,0,1,.55-.34h0a.5.5,0,0,1-.3-.54c0-.17,0-.22-.05-.23A.57.57,0,0,0,44.92,85.58ZM45,83.37c0-.36.89-1.55,1.38-1.55.23,0,.36.16.4.47a17.54,17.54,0,0,0-1.46,1.52A.59.59,0,0,1,45,83.37Z"/><path class="cls-5" d="M48,93.31a.73.73,0,0,1-.6-.31c-.19-.27-.4-.83-.11-2.69a25.39,25.39,0,0,1,.94-3.81,29.12,29.12,0,0,1,3.09-6.25,2.53,2.53,0,0,1,.71-.71.89.89,0,0,1,.9-.08,1.15,1.15,0,0,1,.55,1.06A4.63,4.63,0,0,1,53.23,82a8.09,8.09,0,0,1-1.3,2.43,5.71,5.71,0,0,1-1.15,1.13,5,5,0,0,1-1,.54,1.1,1.1,0,0,1,.28.32,4.47,4.47,0,0,1,.35.67,5.27,5.27,0,0,0,.42.78c.09.12.21.26.32.27a.53.53,0,0,0,.35-.15,3.54,3.54,0,0,0,.81-.85.48.48,0,1,1,.77.57c-.75,1-1.4,1.44-2,1.39a1.24,1.24,0,0,1-.77-.39,7.81,7.81,0,0,1-.07,1,6.59,6.59,0,0,1-.94,2.63C49,92.79,48.56,93.31,48,93.31Zm1-6.25a25.84,25.84,0,0,0-.82,3.35,6.62,6.62,0,0,0-.11,1.85l.17-.19a4.41,4.41,0,0,0,.51-.85A5.93,5.93,0,0,0,49.07,87.06Zm3.45-6.7a1.8,1.8,0,0,0-.4.43,27.83,27.83,0,0,0-2.28,4.26,6.13,6.13,0,0,0,2.5-3.31,4.23,4.23,0,0,0,.21-1.06A1.51,1.51,0,0,0,52.52,80.37Z"/><path class="cls-5" d="M54.26,89.85a1.91,1.91,0,0,1-.7-.13,1.4,1.4,0,0,1-.66-.62c-.46-.88,0-2.32,1.49-4.39a.48.48,0,0,1,.78.55c-1.71,2.41-1.52,3.22-1.42,3.41a.58.58,0,0,0,.51.23c.86,0,1.46-1,1.81-1.86a.48.48,0,0,1,.89.38,5.14,5.14,0,0,1-1.24,1.86A2.24,2.24,0,0,1,54.26,89.85Zm1.37-6.36a.49.49,0,0,1-.27-.08.48.48,0,0,1-.2-.39.57.57,0,0,1,.08-.28l0,0,0-.07a.49.49,0,0,1,.67-.12.48.48,0,0,1,.12.66l-.05.08v0A.48.48,0,0,1,55.63,83.49Z"/><path class="cls-5" d="M58.3,90.36a1.66,1.66,0,0,1-.89-.27,1.93,1.93,0,0,1-.69-.78c-.29-.58-.56-1.83.87-3.72a3.31,3.31,0,0,1,1.09-1,1.49,1.49,0,0,1,1.11-.13,1.29,1.29,0,0,1,.67.43,1.59,1.59,0,0,1,.3.71,1.35,1.35,0,0,1-.16.79A1.51,1.51,0,0,1,60,87a.48.48,0,0,1-.44-.85.45.45,0,0,0,.3-.46.39.39,0,0,0-.27-.34c-.24-.07-.69.11-1.2.78-.81,1.08-1.1,2.08-.78,2.71a.87.87,0,0,0,.73.53A3.08,3.08,0,0,0,61,87.18a.48.48,0,0,1,.89.38,5.2,5.2,0,0,1-1.48,2A3.26,3.26,0,0,1,58.3,90.36Z"/><path class="cls-5" d="M62.5,90a1.15,1.15,0,0,1-.89-.38,2,2,0,0,1-.24-1.82,4.31,4.31,0,0,1,1.2-2,.43.43,0,0,1,.35-.13,1.82,1.82,0,0,1,.54-.75,1.58,1.58,0,0,1,1.6-.5,1.47,1.47,0,0,1,.9,1.19,3.12,3.12,0,0,1-.26,1.74,1.36,1.36,0,0,1-.09.2,1.71,1.71,0,0,0,.87-.65.48.48,0,0,1,.67-.07.47.47,0,0,1,.07.67,2.86,2.86,0,0,1-1.19.92,2.35,2.35,0,0,1-1.1.13,8.22,8.22,0,0,1-.6.58,3.82,3.82,0,0,1-1.49.81Zm.36-3.09a3.49,3.49,0,0,0-.58,1.13,1.19,1.19,0,0,0,0,.94s.08.08.31,0a2.77,2.77,0,0,0,1.07-.61l.21-.19A2.38,2.38,0,0,1,62.86,86.94Zm1.8-1.58a1,1,0,0,0-.58.31.88.88,0,0,0-.31,1,1.45,1.45,0,0,0,.78.89,2.47,2.47,0,0,0,.46-1.7.56.56,0,0,0-.27-.44Z"/><path class="cls-5" d="M69.28,90.23a1.71,1.71,0,0,1-1.75-.92.48.48,0,0,1,.2-.65.47.47,0,0,1,.64.2c.09.18.21.4.9.4S70,89,70,89a2.12,2.12,0,0,0,.11-1.5,8,8,0,0,0-.36-1.32,6.73,6.73,0,0,1-.46.67,13.43,13.43,0,0,1-1.45,1.52.48.48,0,0,1-.64-.7,8.1,8.1,0,0,0,2-2.51,1.48,1.48,0,0,0,.12-.27c0-.05,0-.11,0-.16a.77.77,0,0,1,.26-.7.49.49,0,0,1,.62,0c.24.2.23.55.13.92a2.35,2.35,0,0,0,.09.3c.79,2,.91,3.44.36,4.26A1.74,1.74,0,0,1,69.28,90.23Z"/></g></g><g class="cls-4"><g class="cls-4"><path class="cls-5" d="M17,63.19a3.83,3.83,0,1,1,0,7.65H14.64v4.33a1,1,0,0,1-2,0v-11a1,1,0,0,1,1-1Zm-2.37,2v3.64H17A1.9,1.9,0,0,0,18.9,67,1.84,1.84,0,0,0,17,65.19Z"/><path class="cls-5" d="M25,76.16a1,1,0,0,1-1-1v-11a1,1,0,0,1,1-1h3.38A3.85,3.85,0,0,1,32.24,67a3.78,3.78,0,0,1-2.56,3.59l2.39,4.05a1,1,0,0,1,.13.49,1,1,0,0,1-1,1,1,1,0,0,1-.87-.51l-2.82-4.81H26v4.33A1,1,0,0,1,25,76.16Zm1-11v3.64h2.38A1.9,1.9,0,0,0,30.23,67a1.84,1.84,0,0,0-1.89-1.79Z"/><path class="cls-5" d="M37.69,72.55l-1.24,3a1,1,0,0,1-.91.61,1,1,0,0,1-1-1,1.11,1.11,0,0,1,.1-.47l4.74-10.93a1,1,0,0,1,1.83,0l4.69,10.94a1.29,1.29,0,0,1,.1.47,1,1,0,0,1-1,1,1,1,0,0,1-.93-.6l-1.26-3Zm4.27-2-1.73-4.12-1.71,4.12Z"/><path class="cls-5" d="M57.63,76.16a1,1,0,0,1-.63-.21.6.6,0,0,1-.18-.17l-6.09-8.55v7.94a1,1,0,0,1-2,0v-11a1,1,0,0,1,1-1h.17l.14,0a1.16,1.16,0,0,1,.29.15l.11.09a1.09,1.09,0,0,1,.18.24l6,8.41v-8a1,1,0,0,1,1-1,1,1,0,0,1,1,1v11a1,1,0,0,1-.71,1l-.18,0Z"/></g><g class="cls-4"><path class="cls-5" d="M65,63.19a6.49,6.49,0,1,1,0,13H62.76a1,1,0,0,1-1-1v-11a1,1,0,0,1,1-1ZM63.78,74.13H65a4.42,4.42,0,0,0,4.56-4.44A4.47,4.47,0,0,0,65,65.23H63.78Z"/></g><g class="cls-4"><path class="cls-5" d="M77.4,70.78l-3.95-5.87a1,1,0,0,1-.24-.66,1,1,0,0,1,1-1,.91.91,0,0,1,.74.35l3.42,5.21,3.4-5.23a1,1,0,0,1,.74-.34,1,1,0,0,1,1,1,1.14,1.14,0,0,1-.25.69l-3.9,5.87v4.4a1,1,0,0,1-2,0Z"/></g></g></g></g><path class="cls-6" d="M47.95,4.62,91.89,30.09V81L47.95,106.48,4,81V30.09L47.95,4.62m0-4.62-2,1.16L2,26.63,0,27.78V83.32l2,1.16,43.95,25.46,2,1.16,2-1.16L93.9,84.48l2-1.16V27.78l-2-1.16L50,1.16,47.95,0Z"/></g></g></svg>