<svg xmlns="http://www.w3.org/2000/svg" viewBox="0 0 83.63 65.15"><defs><style>.cls-1{fill:#fff;}</style></defs><title>Recurso 20</title><g id="Capa_2" data-name="Capa 2"><g id="Capa_3" data-name="Capa 3"><path class="cls-1" d="M83.21,17.36,74.3,1.7A3.37,3.37,0,0,0,71.38,0H13.08a3.36,3.36,0,0,0-2.86,1.59L.5,17.24a3.36,3.36,0,0,0-.21,3.13c.33,4.75,3.49,8.5,7.38,8.5A6.48,6.48,0,0,0,12.06,27a6.48,6.48,0,0,0,4.4,1.83A6.88,6.88,0,0,0,22,25.71a6.88,6.88,0,0,0,5.55,3.16c2.7,0,5-1.81,6.34-4.49,1.31,2.68,3.65,4.49,6.34,4.49a7.09,7.09,0,0,0,6-3.81,7.09,7.09,0,0,0,6,3.81,6.88,6.88,0,0,0,5.55-3.16,6.88,6.88,0,0,0,5.55,3.16c2.7,0,5-1.81,6.34-4.49C71,27.06,73.29,28.87,76,28.87c3.91,0,7.09-3.79,7.39-8.58h0A3.34,3.34,0,0,0,83.21,17.36ZM14.95,6.73H69.42l5.08,8.92H9.41Z"/><path class="cls-1" d="M74.23,65.15H64.44a2.84,2.84,0,0,1-2.84-2.84V44.81H56.38v17.5a2.84,2.84,0,0,1-2.84,2.84H9.41a2.84,2.84,0,0,1-2.84-2.84V36.06a2.84,2.84,0,1,1,5.67,0V59.48H50.71V42a2.84,2.84,0,0,1,2.84-2.84h10.9A2.84,2.84,0,0,1,67.28,42v17.5H71.4V36.06a2.84,2.84,0,0,1,5.67,0V62.32A2.84,2.84,0,0,1,74.23,65.15Z"/><rect class="cls-1" x="19.78" y="37.19" width="22.04" height="12" rx="1.27" ry="1.27"/></g></g></svg>